<mxfile host="app.diagrams.net" agent="Mozilla/5.0 (X11; Ubuntu; Linux x86_64; rv:136.0) Gecko/20100101 Firefox/136.0" version="26.0.9">
  <diagram name="Page-1" id="2YBvvXClWsGukQMizWep">
    <mxGraphModel dx="683" dy="378" grid="1" gridSize="10" guides="1" tooltips="1" connect="1" arrows="1" fold="1" page="1" pageScale="1" pageWidth="850" pageHeight="1100" math="0" shadow="0">
      <root>
        <mxCell id="0" />
        <mxCell id="1" parent="0" />
        <mxCell id="XXntQXcAkPe-pE2COfQG-1" value="" style="endArrow=classic;html=1;rounded=0;" parent="1" edge="1">
          <mxGeometry width="50" height="50" relative="1" as="geometry">
            <mxPoint x="80" y="240" as="sourcePoint" />
            <mxPoint x="600" y="240" as="targetPoint" />
          </mxGeometry>
        </mxCell>
        <mxCell id="XXntQXcAkPe-pE2COfQG-2" value="" style="endArrow=none;html=1;rounded=0;" parent="1" edge="1">
          <mxGeometry width="50" height="50" relative="1" as="geometry">
            <mxPoint x="80" y="230" as="sourcePoint" />
            <mxPoint x="350" y="230" as="targetPoint" />
          </mxGeometry>
        </mxCell>
        <mxCell id="XXntQXcAkPe-pE2COfQG-3" value="" style="endArrow=none;html=1;rounded=0;" parent="1" edge="1">
          <mxGeometry width="50" height="50" relative="1" as="geometry">
            <mxPoint x="80" y="210" as="sourcePoint" />
            <mxPoint x="350" y="210" as="targetPoint" />
          </mxGeometry>
        </mxCell>
        <mxCell id="XXntQXcAkPe-pE2COfQG-6" value="" style="endArrow=none;html=1;rounded=0;" parent="1" edge="1">
          <mxGeometry width="50" height="50" relative="1" as="geometry">
            <mxPoint x="80" y="190" as="sourcePoint" />
            <mxPoint x="120" y="190" as="targetPoint" />
          </mxGeometry>
        </mxCell>
        <mxCell id="XXntQXcAkPe-pE2COfQG-7" value="" style="endArrow=none;html=1;rounded=0;" parent="1" edge="1">
          <mxGeometry width="50" height="50" relative="1" as="geometry">
            <mxPoint x="80" y="160" as="sourcePoint" />
            <mxPoint x="120" y="160" as="targetPoint" />
          </mxGeometry>
        </mxCell>
        <mxCell id="XXntQXcAkPe-pE2COfQG-8" value="" style="endArrow=none;html=1;rounded=0;" parent="1" edge="1">
          <mxGeometry width="50" height="50" relative="1" as="geometry">
            <mxPoint x="80" y="130" as="sourcePoint" />
            <mxPoint x="120" y="130" as="targetPoint" />
          </mxGeometry>
        </mxCell>
        <mxCell id="XXntQXcAkPe-pE2COfQG-9" value="" style="endArrow=none;html=1;rounded=0;" parent="1" edge="1">
          <mxGeometry width="50" height="50" relative="1" as="geometry">
            <mxPoint x="80" y="100" as="sourcePoint" />
            <mxPoint x="120" y="100" as="targetPoint" />
          </mxGeometry>
        </mxCell>
        <mxCell id="XXntQXcAkPe-pE2COfQG-10" value="" style="endArrow=none;html=1;rounded=0;" parent="1" edge="1">
          <mxGeometry width="50" height="50" relative="1" as="geometry">
            <mxPoint x="120" y="80" as="sourcePoint" />
            <mxPoint x="120" y="100" as="targetPoint" />
          </mxGeometry>
        </mxCell>
        <mxCell id="XXntQXcAkPe-pE2COfQG-11" value="" style="endArrow=none;html=1;rounded=0;" parent="1" edge="1">
          <mxGeometry width="50" height="50" relative="1" as="geometry">
            <mxPoint x="120" y="80" as="sourcePoint" />
            <mxPoint x="160" y="80" as="targetPoint" />
          </mxGeometry>
        </mxCell>
        <mxCell id="XXntQXcAkPe-pE2COfQG-12" value="" style="endArrow=none;html=1;rounded=0;" parent="1" edge="1">
          <mxGeometry width="50" height="50" relative="1" as="geometry">
            <mxPoint x="120" y="130" as="sourcePoint" />
            <mxPoint x="160" y="130" as="targetPoint" />
          </mxGeometry>
        </mxCell>
        <mxCell id="XXntQXcAkPe-pE2COfQG-13" value="" style="endArrow=none;html=1;rounded=0;" parent="1" edge="1">
          <mxGeometry width="50" height="50" relative="1" as="geometry">
            <mxPoint x="160" y="110" as="sourcePoint" />
            <mxPoint x="160" y="130" as="targetPoint" />
          </mxGeometry>
        </mxCell>
        <mxCell id="XXntQXcAkPe-pE2COfQG-14" value="" style="endArrow=none;html=1;rounded=0;" parent="1" edge="1">
          <mxGeometry width="50" height="50" relative="1" as="geometry">
            <mxPoint x="160" y="110" as="sourcePoint" />
            <mxPoint x="200" y="110" as="targetPoint" />
          </mxGeometry>
        </mxCell>
        <mxCell id="XXntQXcAkPe-pE2COfQG-15" value="" style="endArrow=none;html=1;rounded=0;" parent="1" edge="1">
          <mxGeometry width="50" height="50" relative="1" as="geometry">
            <mxPoint x="120" y="160" as="sourcePoint" />
            <mxPoint x="160" y="160" as="targetPoint" />
          </mxGeometry>
        </mxCell>
        <mxCell id="XXntQXcAkPe-pE2COfQG-16" value="" style="endArrow=none;html=1;rounded=0;" parent="1" edge="1">
          <mxGeometry width="50" height="50" relative="1" as="geometry">
            <mxPoint x="160" y="160" as="sourcePoint" />
            <mxPoint x="200" y="160" as="targetPoint" />
          </mxGeometry>
        </mxCell>
        <mxCell id="XXntQXcAkPe-pE2COfQG-17" value="" style="endArrow=none;html=1;rounded=0;" parent="1" edge="1">
          <mxGeometry width="50" height="50" relative="1" as="geometry">
            <mxPoint x="200" y="140" as="sourcePoint" />
            <mxPoint x="200" y="160" as="targetPoint" />
          </mxGeometry>
        </mxCell>
        <mxCell id="XXntQXcAkPe-pE2COfQG-18" value="" style="endArrow=none;html=1;rounded=0;" parent="1" edge="1">
          <mxGeometry width="50" height="50" relative="1" as="geometry">
            <mxPoint x="200" y="110" as="sourcePoint" />
            <mxPoint x="240" y="110" as="targetPoint" />
          </mxGeometry>
        </mxCell>
        <mxCell id="XXntQXcAkPe-pE2COfQG-19" value="" style="endArrow=none;html=1;rounded=0;" parent="1" edge="1">
          <mxGeometry width="50" height="50" relative="1" as="geometry">
            <mxPoint x="200" y="140" as="sourcePoint" />
            <mxPoint x="240" y="140" as="targetPoint" />
          </mxGeometry>
        </mxCell>
        <mxCell id="XXntQXcAkPe-pE2COfQG-20" value="" style="endArrow=none;html=1;rounded=0;" parent="1" edge="1">
          <mxGeometry width="50" height="50" relative="1" as="geometry">
            <mxPoint x="240" y="110" as="sourcePoint" />
            <mxPoint x="240" y="130" as="targetPoint" />
          </mxGeometry>
        </mxCell>
        <mxCell id="XXntQXcAkPe-pE2COfQG-21" value="" style="endArrow=none;html=1;rounded=0;" parent="1" edge="1">
          <mxGeometry width="50" height="50" relative="1" as="geometry">
            <mxPoint x="240" y="140" as="sourcePoint" />
            <mxPoint x="280" y="140" as="targetPoint" />
          </mxGeometry>
        </mxCell>
        <mxCell id="XXntQXcAkPe-pE2COfQG-22" value="" style="endArrow=none;html=1;rounded=0;" parent="1" edge="1">
          <mxGeometry width="50" height="50" relative="1" as="geometry">
            <mxPoint x="240" y="130" as="sourcePoint" />
            <mxPoint x="280" y="130" as="targetPoint" />
          </mxGeometry>
        </mxCell>
        <mxCell id="XXntQXcAkPe-pE2COfQG-23" value="" style="endArrow=none;html=1;rounded=0;" parent="1" edge="1">
          <mxGeometry width="50" height="50" relative="1" as="geometry">
            <mxPoint x="280" y="140" as="sourcePoint" />
            <mxPoint x="280" y="160" as="targetPoint" />
          </mxGeometry>
        </mxCell>
        <mxCell id="XXntQXcAkPe-pE2COfQG-24" value="" style="endArrow=none;html=1;rounded=0;" parent="1" edge="1">
          <mxGeometry width="50" height="50" relative="1" as="geometry">
            <mxPoint x="280" y="160" as="sourcePoint" />
            <mxPoint x="320" y="160" as="targetPoint" />
          </mxGeometry>
        </mxCell>
        <mxCell id="XXntQXcAkPe-pE2COfQG-25" value="" style="endArrow=none;html=1;rounded=0;" parent="1" edge="1">
          <mxGeometry width="50" height="50" relative="1" as="geometry">
            <mxPoint x="160" y="80" as="sourcePoint" />
            <mxPoint x="200" y="80" as="targetPoint" />
          </mxGeometry>
        </mxCell>
        <mxCell id="XXntQXcAkPe-pE2COfQG-26" value="" style="endArrow=none;html=1;rounded=0;" parent="1" edge="1">
          <mxGeometry width="50" height="50" relative="1" as="geometry">
            <mxPoint x="200" y="80" as="sourcePoint" />
            <mxPoint x="240" y="80" as="targetPoint" />
          </mxGeometry>
        </mxCell>
        <mxCell id="XXntQXcAkPe-pE2COfQG-27" value="" style="endArrow=none;html=1;rounded=0;" parent="1" edge="1">
          <mxGeometry width="50" height="50" relative="1" as="geometry">
            <mxPoint x="240" y="80" as="sourcePoint" />
            <mxPoint x="280" y="80" as="targetPoint" />
          </mxGeometry>
        </mxCell>
        <mxCell id="XXntQXcAkPe-pE2COfQG-28" value="" style="endArrow=none;html=1;rounded=0;" parent="1" edge="1">
          <mxGeometry width="50" height="50" relative="1" as="geometry">
            <mxPoint x="280" y="80" as="sourcePoint" />
            <mxPoint x="440" y="80" as="targetPoint" />
          </mxGeometry>
        </mxCell>
        <mxCell id="XXntQXcAkPe-pE2COfQG-29" value="" style="endArrow=none;html=1;rounded=0;" parent="1" edge="1">
          <mxGeometry width="50" height="50" relative="1" as="geometry">
            <mxPoint x="280" y="130" as="sourcePoint" />
            <mxPoint x="440" y="130" as="targetPoint" />
          </mxGeometry>
        </mxCell>
        <mxCell id="XXntQXcAkPe-pE2COfQG-30" value="" style="endArrow=none;html=1;rounded=0;" parent="1" edge="1">
          <mxGeometry width="50" height="50" relative="1" as="geometry">
            <mxPoint x="120" y="190" as="sourcePoint" />
            <mxPoint x="160" y="190" as="targetPoint" />
          </mxGeometry>
        </mxCell>
        <mxCell id="XXntQXcAkPe-pE2COfQG-31" value="" style="endArrow=none;html=1;rounded=0;" parent="1" edge="1">
          <mxGeometry width="50" height="50" relative="1" as="geometry">
            <mxPoint x="160" y="190" as="sourcePoint" />
            <mxPoint x="200" y="190" as="targetPoint" />
          </mxGeometry>
        </mxCell>
        <mxCell id="XXntQXcAkPe-pE2COfQG-32" value="" style="endArrow=none;html=1;rounded=0;" parent="1" edge="1">
          <mxGeometry width="50" height="50" relative="1" as="geometry">
            <mxPoint x="200" y="190" as="sourcePoint" />
            <mxPoint x="240" y="190" as="targetPoint" />
          </mxGeometry>
        </mxCell>
        <mxCell id="XXntQXcAkPe-pE2COfQG-33" value="" style="endArrow=none;html=1;rounded=0;" parent="1" edge="1">
          <mxGeometry width="50" height="50" relative="1" as="geometry">
            <mxPoint x="240" y="190" as="sourcePoint" />
            <mxPoint x="280" y="190" as="targetPoint" />
          </mxGeometry>
        </mxCell>
        <mxCell id="XXntQXcAkPe-pE2COfQG-34" value="" style="endArrow=none;html=1;rounded=0;" parent="1" edge="1">
          <mxGeometry width="50" height="50" relative="1" as="geometry">
            <mxPoint x="320" y="170" as="sourcePoint" />
            <mxPoint x="360" y="170" as="targetPoint" />
          </mxGeometry>
        </mxCell>
        <mxCell id="XXntQXcAkPe-pE2COfQG-35" value="" style="endArrow=none;html=1;rounded=0;" parent="1" edge="1">
          <mxGeometry width="50" height="50" relative="1" as="geometry">
            <mxPoint x="280" y="190" as="sourcePoint" />
            <mxPoint x="320" y="190" as="targetPoint" />
          </mxGeometry>
        </mxCell>
        <mxCell id="XXntQXcAkPe-pE2COfQG-36" value="" style="endArrow=none;html=1;rounded=0;" parent="1" edge="1">
          <mxGeometry width="50" height="50" relative="1" as="geometry">
            <mxPoint x="360" y="190" as="sourcePoint" />
            <mxPoint x="400" y="190" as="targetPoint" />
          </mxGeometry>
        </mxCell>
        <mxCell id="XXntQXcAkPe-pE2COfQG-38" value="" style="endArrow=none;html=1;rounded=0;" parent="1" edge="1">
          <mxGeometry width="50" height="50" relative="1" as="geometry">
            <mxPoint x="400" y="170" as="sourcePoint" />
            <mxPoint x="440" y="170" as="targetPoint" />
          </mxGeometry>
        </mxCell>
        <mxCell id="XXntQXcAkPe-pE2COfQG-39" value="" style="endArrow=none;html=1;rounded=0;" parent="1" edge="1">
          <mxGeometry width="50" height="50" relative="1" as="geometry">
            <mxPoint x="320" y="170" as="sourcePoint" />
            <mxPoint x="320" y="190" as="targetPoint" />
          </mxGeometry>
        </mxCell>
        <mxCell id="XXntQXcAkPe-pE2COfQG-40" value="" style="endArrow=none;html=1;rounded=0;" parent="1" edge="1">
          <mxGeometry width="50" height="50" relative="1" as="geometry">
            <mxPoint x="360" y="170" as="sourcePoint" />
            <mxPoint x="360" y="190" as="targetPoint" />
          </mxGeometry>
        </mxCell>
        <mxCell id="XXntQXcAkPe-pE2COfQG-41" value="" style="endArrow=none;html=1;rounded=0;" parent="1" edge="1">
          <mxGeometry width="50" height="50" relative="1" as="geometry">
            <mxPoint x="400" y="170" as="sourcePoint" />
            <mxPoint x="400" y="190" as="targetPoint" />
          </mxGeometry>
        </mxCell>
        <mxCell id="XXntQXcAkPe-pE2COfQG-42" value="" style="endArrow=none;html=1;rounded=0;" parent="1" edge="1">
          <mxGeometry width="50" height="50" relative="1" as="geometry">
            <mxPoint x="440" y="170" as="sourcePoint" />
            <mxPoint x="440" y="190" as="targetPoint" />
          </mxGeometry>
        </mxCell>
        <mxCell id="XXntQXcAkPe-pE2COfQG-44" value="" style="endArrow=none;html=1;rounded=0;dashed=1;" parent="1" edge="1">
          <mxGeometry width="50" height="50" relative="1" as="geometry">
            <mxPoint x="440" y="190" as="sourcePoint" />
            <mxPoint x="480" y="190" as="targetPoint" />
          </mxGeometry>
        </mxCell>
        <mxCell id="XXntQXcAkPe-pE2COfQG-45" value="" style="endArrow=none;html=1;rounded=0;" parent="1" edge="1">
          <mxGeometry width="50" height="50" relative="1" as="geometry">
            <mxPoint x="320" y="160" as="sourcePoint" />
            <mxPoint x="440" y="160" as="targetPoint" />
          </mxGeometry>
        </mxCell>
        <mxCell id="XXntQXcAkPe-pE2COfQG-46" value="" style="endArrow=none;html=1;rounded=0;dashed=1;" parent="1" edge="1">
          <mxGeometry width="50" height="50" relative="1" as="geometry">
            <mxPoint x="440" y="160" as="sourcePoint" />
            <mxPoint x="480" y="160" as="targetPoint" />
          </mxGeometry>
        </mxCell>
        <mxCell id="XXntQXcAkPe-pE2COfQG-47" value="" style="endArrow=none;html=1;rounded=0;dashed=1;" parent="1" edge="1">
          <mxGeometry width="50" height="50" relative="1" as="geometry">
            <mxPoint x="440" y="130" as="sourcePoint" />
            <mxPoint x="480" y="130" as="targetPoint" />
          </mxGeometry>
        </mxCell>
        <mxCell id="XXntQXcAkPe-pE2COfQG-48" value="" style="endArrow=none;html=1;rounded=0;dashed=1;" parent="1" edge="1">
          <mxGeometry width="50" height="50" relative="1" as="geometry">
            <mxPoint x="440" y="80" as="sourcePoint" />
            <mxPoint x="480" y="80" as="targetPoint" />
          </mxGeometry>
        </mxCell>
        <mxCell id="XXntQXcAkPe-pE2COfQG-49" value="" style="endArrow=none;html=1;rounded=0;" parent="1" edge="1">
          <mxGeometry width="50" height="50" relative="1" as="geometry">
            <mxPoint x="480" y="80" as="sourcePoint" />
            <mxPoint x="480" y="100" as="targetPoint" />
          </mxGeometry>
        </mxCell>
        <mxCell id="XXntQXcAkPe-pE2COfQG-50" value="" style="endArrow=none;html=1;rounded=0;" parent="1" edge="1">
          <mxGeometry width="50" height="50" relative="1" as="geometry">
            <mxPoint x="480" y="100" as="sourcePoint" />
            <mxPoint x="520" y="100" as="targetPoint" />
          </mxGeometry>
        </mxCell>
        <mxCell id="XXntQXcAkPe-pE2COfQG-51" value="" style="endArrow=none;html=1;rounded=0;" parent="1" edge="1">
          <mxGeometry width="50" height="50" relative="1" as="geometry">
            <mxPoint x="350" y="210" as="sourcePoint" />
            <mxPoint x="370" y="230" as="targetPoint" />
          </mxGeometry>
        </mxCell>
        <mxCell id="XXntQXcAkPe-pE2COfQG-52" value="" style="endArrow=none;html=1;rounded=0;" parent="1" edge="1">
          <mxGeometry width="50" height="50" relative="1" as="geometry">
            <mxPoint x="370" y="210" as="sourcePoint" />
            <mxPoint x="350" y="230" as="targetPoint" />
          </mxGeometry>
        </mxCell>
        <mxCell id="XXntQXcAkPe-pE2COfQG-53" value="" style="endArrow=none;html=1;rounded=0;" parent="1" edge="1">
          <mxGeometry width="50" height="50" relative="1" as="geometry">
            <mxPoint x="370" y="210" as="sourcePoint" />
            <mxPoint x="390" y="210" as="targetPoint" />
          </mxGeometry>
        </mxCell>
        <mxCell id="XXntQXcAkPe-pE2COfQG-54" value="" style="endArrow=none;html=1;rounded=0;" parent="1" edge="1">
          <mxGeometry width="50" height="50" relative="1" as="geometry">
            <mxPoint x="390" y="210" as="sourcePoint" />
            <mxPoint x="410" y="230" as="targetPoint" />
          </mxGeometry>
        </mxCell>
        <mxCell id="XXntQXcAkPe-pE2COfQG-55" value="" style="endArrow=none;html=1;rounded=0;" parent="1" edge="1">
          <mxGeometry width="50" height="50" relative="1" as="geometry">
            <mxPoint x="410" y="210" as="sourcePoint" />
            <mxPoint x="390" y="230" as="targetPoint" />
          </mxGeometry>
        </mxCell>
        <mxCell id="XXntQXcAkPe-pE2COfQG-56" value="" style="endArrow=none;html=1;rounded=0;" parent="1" edge="1">
          <mxGeometry width="50" height="50" relative="1" as="geometry">
            <mxPoint x="370" y="230" as="sourcePoint" />
            <mxPoint x="390" y="230" as="targetPoint" />
          </mxGeometry>
        </mxCell>
        <mxCell id="XXntQXcAkPe-pE2COfQG-57" value="" style="endArrow=none;html=1;rounded=0;" parent="1" edge="1">
          <mxGeometry width="50" height="50" relative="1" as="geometry">
            <mxPoint x="410" y="210" as="sourcePoint" />
            <mxPoint x="430" y="210" as="targetPoint" />
          </mxGeometry>
        </mxCell>
        <mxCell id="XXntQXcAkPe-pE2COfQG-58" value="" style="endArrow=none;html=1;rounded=0;" parent="1" edge="1">
          <mxGeometry width="50" height="50" relative="1" as="geometry">
            <mxPoint x="410" y="230" as="sourcePoint" />
            <mxPoint x="430" y="230" as="targetPoint" />
          </mxGeometry>
        </mxCell>
        <mxCell id="XXntQXcAkPe-pE2COfQG-59" value="" style="endArrow=none;html=1;rounded=0;" parent="1" edge="1">
          <mxGeometry width="50" height="50" relative="1" as="geometry">
            <mxPoint x="430" y="210" as="sourcePoint" />
            <mxPoint x="450" y="230" as="targetPoint" />
          </mxGeometry>
        </mxCell>
        <mxCell id="XXntQXcAkPe-pE2COfQG-60" value="" style="endArrow=none;html=1;rounded=0;" parent="1" edge="1">
          <mxGeometry width="50" height="50" relative="1" as="geometry">
            <mxPoint x="450" y="210" as="sourcePoint" />
            <mxPoint x="430" y="230" as="targetPoint" />
          </mxGeometry>
        </mxCell>
        <mxCell id="XXntQXcAkPe-pE2COfQG-61" value="" style="endArrow=none;html=1;rounded=0;dashed=1;" parent="1" edge="1">
          <mxGeometry width="50" height="50" relative="1" as="geometry">
            <mxPoint x="450" y="210" as="sourcePoint" />
            <mxPoint x="470" y="210" as="targetPoint" />
          </mxGeometry>
        </mxCell>
        <mxCell id="XXntQXcAkPe-pE2COfQG-62" value="" style="endArrow=none;html=1;rounded=0;dashed=1;" parent="1" edge="1">
          <mxGeometry width="50" height="50" relative="1" as="geometry">
            <mxPoint x="450" y="230" as="sourcePoint" />
            <mxPoint x="470" y="230" as="targetPoint" />
          </mxGeometry>
        </mxCell>
        <mxCell id="XXntQXcAkPe-pE2COfQG-63" value="" style="endArrow=none;html=1;rounded=0;" parent="1" edge="1">
          <mxGeometry width="50" height="50" relative="1" as="geometry">
            <mxPoint x="480" y="130" as="sourcePoint" />
            <mxPoint x="520" y="130" as="targetPoint" />
          </mxGeometry>
        </mxCell>
        <mxCell id="XXntQXcAkPe-pE2COfQG-64" value="" style="endArrow=none;html=1;rounded=0;" parent="1" edge="1">
          <mxGeometry width="50" height="50" relative="1" as="geometry">
            <mxPoint x="480" y="160" as="sourcePoint" />
            <mxPoint x="520" y="160" as="targetPoint" />
          </mxGeometry>
        </mxCell>
        <mxCell id="XXntQXcAkPe-pE2COfQG-65" value="" style="endArrow=none;html=1;rounded=0;" parent="1" edge="1">
          <mxGeometry width="50" height="50" relative="1" as="geometry">
            <mxPoint x="480" y="190" as="sourcePoint" />
            <mxPoint x="520" y="190" as="targetPoint" />
          </mxGeometry>
        </mxCell>
        <mxCell id="XXntQXcAkPe-pE2COfQG-66" value="" style="endArrow=none;html=1;rounded=0;" parent="1" edge="1">
          <mxGeometry width="50" height="50" relative="1" as="geometry">
            <mxPoint x="490" y="210" as="sourcePoint" />
            <mxPoint x="520" y="210" as="targetPoint" />
          </mxGeometry>
        </mxCell>
        <mxCell id="XXntQXcAkPe-pE2COfQG-67" value="" style="endArrow=none;html=1;rounded=0;" parent="1" edge="1">
          <mxGeometry width="50" height="50" relative="1" as="geometry">
            <mxPoint x="490" y="230" as="sourcePoint" />
            <mxPoint x="520" y="230" as="targetPoint" />
          </mxGeometry>
        </mxCell>
        <mxCell id="XXntQXcAkPe-pE2COfQG-68" value="" style="endArrow=none;html=1;rounded=0;" parent="1" edge="1">
          <mxGeometry width="50" height="50" relative="1" as="geometry">
            <mxPoint x="470" y="210" as="sourcePoint" />
            <mxPoint x="490" y="230" as="targetPoint" />
          </mxGeometry>
        </mxCell>
        <mxCell id="XXntQXcAkPe-pE2COfQG-69" value="" style="endArrow=none;html=1;rounded=0;" parent="1" edge="1">
          <mxGeometry width="50" height="50" relative="1" as="geometry">
            <mxPoint x="490" y="210" as="sourcePoint" />
            <mxPoint x="470" y="230" as="targetPoint" />
          </mxGeometry>
        </mxCell>
        <mxCell id="XXntQXcAkPe-pE2COfQG-70" value="&lt;div align=&quot;right&quot;&gt;Emu_busy&lt;/div&gt;" style="text;strokeColor=none;fillColor=none;align=right;verticalAlign=middle;spacingLeft=4;spacingRight=4;overflow=hidden;points=[[0,0.5],[1,0.5]];portConstraint=eastwest;rotatable=0;whiteSpace=wrap;html=1;" parent="1" vertex="1">
          <mxGeometry y="80" width="80" height="30" as="geometry" />
        </mxCell>
        <mxCell id="XXntQXcAkPe-pE2COfQG-71" value="&lt;div align=&quot;right&quot;&gt;req&lt;/div&gt;" style="text;strokeColor=none;fillColor=none;align=right;verticalAlign=middle;spacingLeft=4;spacingRight=4;overflow=hidden;points=[[0,0.5],[1,0.5]];portConstraint=eastwest;rotatable=0;whiteSpace=wrap;html=1;" parent="1" vertex="1">
          <mxGeometry y="110" width="80" height="30" as="geometry" />
        </mxCell>
        <mxCell id="XXntQXcAkPe-pE2COfQG-72" value="ack" style="text;strokeColor=none;fillColor=none;align=right;verticalAlign=middle;spacingLeft=4;spacingRight=4;overflow=hidden;points=[[0,0.5],[1,0.5]];portConstraint=eastwest;rotatable=0;whiteSpace=wrap;html=1;" parent="1" vertex="1">
          <mxGeometry y="140" width="80" height="30" as="geometry" />
        </mxCell>
        <mxCell id="XXntQXcAkPe-pE2COfQG-73" value="spike_flag" style="text;strokeColor=none;fillColor=none;align=right;verticalAlign=middle;spacingLeft=4;spacingRight=4;overflow=hidden;points=[[0,0.5],[1,0.5]];portConstraint=eastwest;rotatable=0;whiteSpace=wrap;html=1;" parent="1" vertex="1">
          <mxGeometry y="170" width="80" height="30" as="geometry" />
        </mxCell>
        <mxCell id="XXntQXcAkPe-pE2COfQG-74" value="AER" style="text;strokeColor=none;fillColor=none;align=right;verticalAlign=middle;spacingLeft=4;spacingRight=4;overflow=hidden;points=[[0,0.5],[1,0.5]];portConstraint=eastwest;rotatable=0;whiteSpace=wrap;html=1;" parent="1" vertex="1">
          <mxGeometry y="210" width="80" height="30" as="geometry" />
        </mxCell>
        <mxCell id="LrxdNwlOiKI_gaIj8oUo-2" value="" style="endArrow=classic;html=1;rounded=0;curved=1;dashed=1;" edge="1" parent="1">
          <mxGeometry width="50" height="50" relative="1" as="geometry">
            <mxPoint x="160" y="120" as="sourcePoint" />
            <mxPoint x="200" y="150" as="targetPoint" />
            <Array as="points">
              <mxPoint x="170" y="140" />
            </Array>
          </mxGeometry>
        </mxCell>
        <mxCell id="LrxdNwlOiKI_gaIj8oUo-3" value="" style="endArrow=classic;html=1;rounded=0;curved=1;dashed=1;" edge="1" parent="1">
          <mxGeometry width="50" height="50" relative="1" as="geometry">
            <mxPoint x="200" y="150" as="sourcePoint" />
            <mxPoint x="240" y="120" as="targetPoint" />
            <Array as="points">
              <mxPoint x="210" y="120" />
            </Array>
          </mxGeometry>
        </mxCell>
        <mxCell id="LrxdNwlOiKI_gaIj8oUo-5" value="" style="endArrow=classic;html=1;rounded=0;curved=1;dashed=1;" edge="1" parent="1">
          <mxGeometry width="50" height="50" relative="1" as="geometry">
            <mxPoint x="240" y="120" as="sourcePoint" />
            <mxPoint x="280" y="150" as="targetPoint" />
            <Array as="points">
              <mxPoint x="250" y="140" />
            </Array>
          </mxGeometry>
        </mxCell>
        <mxCell id="LrxdNwlOiKI_gaIj8oUo-6" value="" style="endArrow=classic;html=1;rounded=0;dashed=1;curved=1;" edge="1" parent="1">
          <mxGeometry width="50" height="50" relative="1" as="geometry">
            <mxPoint x="120" y="90" as="sourcePoint" />
            <mxPoint x="160" y="120" as="targetPoint" />
            <Array as="points">
              <mxPoint x="130" y="110" />
            </Array>
          </mxGeometry>
        </mxCell>
        <mxCell id="LrxdNwlOiKI_gaIj8oUo-8" value="Time" style="text;html=1;align=center;verticalAlign=middle;whiteSpace=wrap;rounded=0;" vertex="1" parent="1">
          <mxGeometry x="280" y="240" width="60" height="30" as="geometry" />
        </mxCell>
      </root>
    </mxGraphModel>
  </diagram>
</mxfile>
